<?xml version="1.0" encoding="utf-8"?>
<!-- Generator: Adobe Illustrator 25.4.1, SVG Export Plug-In . SVG Version: 6.00 Build 0)  -->
<svg version="1.1" id="Layer_1" xmlns="http://www.w3.org/2000/svg" xmlns:xlink="http://www.w3.org/1999/xlink" x="0px" y="0px"
	 viewBox="0 0 490.9 490.9" style="enable-background:new 0 0 490.9 490.9;" xml:space="preserve">
<style type="text/css">
	.st0{fill-rule:evenodd;clip-rule:evenodd;fill:#0077D5;}
	.st1{fill-rule:evenodd;clip-rule:evenodd;fill:#FFFFFF;}
</style>
<path class="st0" d="M245.4,0C381,0,490.9,109.9,490.9,245.4S381,490.9,245.4,490.9S0,381,0,245.4S109.9,0,245.4,0z"/>
<path class="st1" d="M138.2,348c0.2-0.1,0.4-0.2,0.6-0.2c20.4-8.5,39.8,8.7,71.8-0.4c3.9-1.2,7.6-2.8,11.1-4.8v65.2
	c16.3,0,30.7,0.4,46.9,0.4V342c2.4,1.3,5,2.4,7.6,3.4c31.5,10.4,51.6-5.8,71.6,3.5c0.4,0.1,0.6,0.2,0.6,0.3c0-0.2,0-0.4-0.1-0.6
	c-0.9-22,22-34.3,24.4-67.5c0.6-18.9-6.5-34.9-19.8-44.4c16,0.2,31-8.1,41.8-23.2c18.3-27.8,7.7-51.4,21.8-68.3
	c0.1-0.2,0.3-0.3,0.4-0.4c0-0.1-0.4-0.1-0.6-0.1c-21.5-4.8-27.5-30-59-41c-16.4-5-32.3-3.2-44.5,5.1c4.4-14.6,1.1-30.6-9.2-45
	C283.2,37.4,257.5,39.8,246,21c-0.1-0.1-0.2-0.3-0.3-0.5c-0.1,0.2-0.2,0.3-0.3,0.5c-11.5,18.9-37.3,16.4-57.8,42.7
	c-10.4,14.4-13.6,30.5-9.1,45.1c-12.3-8.5-28.3-10.4-45-5.4c-31.4,11-37.4,36.2-58.9,41c-0.2,0.1-0.6,0.1-0.6,0.1
	c0.2,0.1,0.3,0.3,0.4,0.4c14.2,16.9,3.6,40.5,21.9,68.3c10.5,14.8,25.2,23,40.7,23.2c-12.7,9.1-19.9,24.3-20.1,42.4
	c1,33.3,23.2,46.5,21.4,68.5C138.3,347.7,138.2,347.9,138.2,348z M158.2,170.2H185c28.4,30.1,56.9,62.8,60.1,106
	c3.5-42.8,31.8-75.3,60-105.3H332c-9.1,10.8-17.9,21.4-28.4,33.6c-16.8,19.4-33.3,42.4-35.1,75.1v39.5c6.5,5.6,13.7,9.1,20.8,8.4
	c21.2,3.4,32.4-6.2,43.9-0.9c0.1,0,0.2,0,0.1-0.1c-0.4-12.7,12.6-19.4,17.7-40.2c8.8-16.5-8.6-44.4-24.3-57.8
	c-0.7-0.4-1.4-0.9-2.2-1.4c20.6-0.5,53-12.2,56.2-31c8.7-19.7,2.4-33,10.5-42.8c0,0,0-0.1,0-0.1c0,0,0,0-0.1,0
	c-12.3-2.8-15.4-17.1-34.3-27.4c-14-13.1-46.8-2.7-63.5,9.4c0.5-1.5,1.1-2.9,1.7-4.4c5-20.1,3.5-51.1-12.5-59.6
	c-15.6-14.6-30.3-12.9-37-23.7c-0.1-0.1-0.1-0.1-0.1,0c-6.6,10.8-21.2,9.1-37,23.7c-16.7,8.9-17.5,42.6-11.7,62.4
	c0.2,0.5,0.4,1,0.6,1.5c-16.8-12.1-49.5-22.5-63.5-9.4c-18.9,10.3-22,24.6-34.3,27.4c-0.1,0-0.2,0.1-0.1,0.1
	c8.1,9.8,1.8,23.1,10.5,42.8c3.2,18.9,35.5,30.5,56.2,31c-0.2,0.2-0.5,0.4-0.7,0.5h0.7c-16.6,12.3-36.4,40.4-28.1,57.7
	c4.2,21,16.9,28.3,15.8,40.9c0,0.1,0.1,0.1,0.1,0.1c11.7-4.8,22.5,5.2,43.9,2.8c7.9,1.1,16.2-3,23.6-9.6v-40.6
	c-1.9-32.7-18.3-55.7-35.1-75.1C176.1,191.7,167.2,181,158.2,170.2L158.2,170.2z M245.3,172.7c13.5,0,24.5,11,24.5,24.5
	s-11,24.5-24.5,24.5s-24.5-11-24.5-24.5l0,0C220.8,183.7,231.8,172.8,245.3,172.7L245.3,172.7z"/>
<path class="st1" d="M16.3,242.6h34v16.6c0,3.7-1,6.5-3,8.3c-1.6,1.4-3.6,2.1-5.7,2.1c-1.8,0.1-3.6-0.4-5-1.5
	c-0.8-0.7-1.5-1.6-1.9-2.7c-0.6,1.8-1.8,3.3-3.5,4.2c-1.5,0.8-3.1,1.1-4.8,1.1c-1.3,0-2.7-0.3-3.9-0.8c-1.2-0.5-2.3-1.2-3.2-2.2
	c-1-1-1.8-2.2-2.2-3.5c-0.7-2.4-1-4.8-0.9-7.3L16.3,242.6z M31.3,249.4h-9.2v8.7c-0.1,1.5,0.3,2.9,1.2,4.1c1,1,2.4,1.5,3.8,1.4
	c1.2,0.1,2.3-0.5,3-1.4c0.7-1.1,1.1-2.4,1.1-3.7L31.3,249.4z M44.4,249.4H37v8.4c-0.1,1.2,0.2,2.4,0.8,3.5c0.7,1,1.8,1.5,3,1.4
	c1.1,0.1,2.2-0.4,2.8-1.3c0.6-1.2,0.9-2.5,0.8-3.9L44.4,249.4z M26.8,283.2l-7.3-1.2l-1.1-7.3l35.4,6.7l1.3,8.1l-31.7,17l-1.2-7.6
	l6.6-3.2L26.8,283.2z M32.9,284.2l1.4,8.6l12.6-6.3L32.9,284.2z M55.3,279.2l2.2-0.6c0.4-0.1,0.7-0.1,1.1,0.1
	c0.5,0.1,0.9,0.2,1.4,0.4c0.4,0.3,0.8,0.5,1.3,0.6c0.5,0.1,1,0.1,1.4-0.1c0.5-0.2,1-0.5,1.2-1c0.3-0.4,0.4-0.9,0.2-1.4
	c-0.2-0.6-0.6-1.2-1.1-1.6c-0.4-0.4-1-0.6-1.6-0.5l-0.7-2.5l0.3-0.1c1.2-0.3,2.4-0.1,3.4,0.6c1.2,0.9,2.1,2.2,2.4,3.7
	c0.4,1.3,0.4,2.7-0.1,4c-0.5,1.1-1.4,1.9-2.5,2.2c-0.6,0.2-1.2,0.3-1.9,0.3c-0.7,0-1.4-0.3-2-0.8c-0.3-0.2-0.7-0.3-0.9-0.6
	c-0.2-0.1-0.5-0.2-0.8-0.4c-0.3-0.1-0.7-0.2-1.1-0.1c-0.4,0-0.8,0.1-1.2,0.2l-0.2,0.1L55.3,279.2z M40.5,305.1
	c4.5-1.9,8.4-2.5,12-1.6c2.8,0.7,5.4,2.2,7.3,4.3c1.5,1.6,2.7,3.4,3.5,5.3c0.8,1.9,1.3,4,1.4,6.1c0.2,2.9-0.5,5.8-2,8.4
	c-1.9,3.1-5.1,5.6-9.6,7.5s-8.4,2.5-12,1.7c-2.8-0.7-5.4-2.2-7.4-4.3c-1.5-1.5-2.6-3.3-3.5-5.3c-0.8-2-1.3-4.1-1.4-6.2
	c-0.2-2.9,0.5-5.8,2-8.3C32.8,309.6,36,307,40.5,305.1z M43.3,311.7c-4,1.6-6.5,3.9-7.6,6.6c-0.9,2.1-0.8,4.5,0.2,6.5
	c0.8,2.1,2.4,3.7,4.5,4.6c2.7,1.1,6.1,0.9,10.1-0.8s6.4-3.9,7.4-6.6c0.9-2.1,0.8-4.4-0.2-6.5c-0.8-2.1-2.5-3.7-4.5-4.6
	C50.5,309.7,47.2,310,43.3,311.7z M73.4,371.2l-6.8-11.3l-13,7.8l-3.7-6.1L79,344.1l3.7,6.1l-11,6.6l6.8,11.4l11-6.6l3.7,6L64,385.1
	l-3.6-6.1L73.4,371.2z M102.4,381.3l-27.1,20.5l-4.2-5.7l27.1-20.4L102.4,381.3z M128.5,402.3l-4,4.4l-13.3-12l-4.9,5.3l12.3,11.1
	l-4,4.5l-12.2-11.1l-5.9,6.5l14,12.5l-4,4.5l-19.3-17.3l22.8-25.3L128.5,402.3z M126.9,385.6l0.9,8.7l-4.5-2.8l-0.5-4.9l-4.6,1.7
	l-4.5-2.7l8.2-3L126.9,385.6z M129.2,388.9l1.1-1.9c0.2-0.3,0.5-0.5,0.9-0.7c0.5-0.2,0.9-0.4,1.3-0.6c0.5,0,1-0.1,1.4-0.4
	c0.4-0.3,0.7-0.6,1-1c0.3-0.4,0.4-1,0.3-1.5c-0.1-0.5-0.4-1-0.8-1.2c-0.5-0.3-1.2-0.5-1.8-0.4c-0.6-0.1-1.2,0.2-1.6,0.6l-2.2-1.4
	l0.1-0.2c0.6-1.1,1.8-1.7,3-1.8c1.5-0.1,3,0.2,4.2,1.1c1.3,0.7,2.2,1.8,2.7,3.2c0.4,1.1,0.2,2.3-0.4,3.2c-0.3,0.6-0.7,1.1-1.1,1.5
	c-0.6,0.5-1.3,0.7-2,0.8c-0.4,0.1-0.7,0.1-1.1,0.2c-0.3,0-0.6,0.1-0.9,0.2c-0.3,0.1-0.6,0.3-0.9,0.6c-0.3,0.4-0.5,0.6-0.7,0.9
	l-0.1,0.2L129.2,388.9z M160.7,422.4l-16,30l-5.8-3.1l13.3-25.1l-19,22l-6.2-3.3l7.9-27.9L121.5,440l-5.8-3.1l15.9-30l9.1,4.8
	l-7.1,26.6l18-20.7L160.7,422.4z M191.3,451.8l6.4,19.9l-8.4-2.2l-3.5-12.8l-9.4,9.6l-8.1-2l14.9-14.3l-6.1-18.5l8.2,2l3.2,12.1
	l8.7-9.1l7.9,1.9L191.3,451.8z M210.3,466.1l-2.9,6.8l-7.5-0.6l15.1-32.8l8.2,0.7l8.9,34.9l-7.7-0.7l-1.5-7.1L210.3,466.1z
	 M212.7,460.4l8.6,0.7l-3-13.8L212.7,460.4z M226.5,428.1l3.1,0.1c-0.2,0.8-0.4,1.7-0.8,2.5c-0.7,1.9-2.6,3.2-4.6,3.1
	c-0.5,0-1.1-0.1-1.6-0.2c-0.7-0.2-1.3-0.4-1.9-0.6c-0.8-0.3-1.6-0.6-2.3-0.9c-0.3-0.1-0.7-0.2-1-0.2c-0.7-0.1-1.4,0.2-1.8,0.7
	c-0.3,0.4-0.4,0.8-0.6,1.2l-3-0.1c0.2-0.7,0.4-1.3,0.6-1.9c0.3-0.6,0.7-1.2,1.1-1.8c0.5-0.6,1-1.1,1.7-1.4c0.8-0.4,1.7-0.6,2.7-0.6
	c1.2,0.2,2.3,0.6,3.4,1.1c0.9,0.4,1.9,0.7,2.9,0.9c0.6,0.1,1.1-0.1,1.5-0.5C226.1,429.1,226.4,428.6,226.5,428.1L226.5,428.1z
	 M279.1,456.6l-13.1,1.9l2.1,15.1l-7,0.9l-4.8-33.6l7.1-1l1.8,12.7l13.1-1.8l-1.8-12.7l7-1l4.8,33.6l-7,1L279.1,456.6z M294.8,450.6
	c-1.4-4.7-1.4-8.7-0.1-12.2c1-2.7,2.8-5.1,5.2-6.7c1.8-1.3,3.7-2.2,5.8-2.9c2-0.6,4.2-0.8,6.3-0.6c2.9,0.1,5.7,1.2,8,3
	c2.9,2.2,5,5.7,6.3,10.4c1.4,4.6,1.4,8.7,0.1,12.2c-1,2.7-2.8,5.1-5.2,6.8c-1.7,1.3-3.6,2.2-5.6,2.8c-2,0.6-4.2,0.8-6.3,0.6
	c-2.9-0.1-5.7-1.2-8-3C298.3,458.7,296.1,455.3,294.8,450.6L294.8,450.6z M301.6,448.7c1.2,4.1,3.1,6.8,5.7,8.3
	c2,1.1,4.4,1.3,6.5,0.6c2.2-0.5,4.1-2,5.2-3.9c1.4-2.6,1.6-6,0.4-10.1s-3.1-6.8-5.7-8.2c-2-1.1-4.3-1.3-6.4-0.6
	c-2.2,0.6-4.1,2-5.2,4C300.7,441.2,300.5,444.5,301.6,448.7L301.6,448.7z M301.7,421.4l7.8,4l-4.8,2.2l-4.4-2.2l-1.1,4.8l-4.8,2.2
	l1.9-8.6L301.7,421.4z M321.5,464.1l2.3,5l-5.4,2.5l-2.3-5L321.5,464.1z M333.9,416.2l15.9,30l-6.3,3.3l-15.9-30L333.9,416.2z
	 M372.3,395.6l6-4.3l10.6,34.3l-5.5,4l-29.2-20.8l6.1-4.4l21,16.5L372.3,395.6z M385.8,381.9l24,24l-5,5l-24-24L385.8,381.9z
	 M405.6,356.4l5,3.3l-9.8,15l6,3.9l9.1-13.9l5,3.3l-9,13.8l7.3,4.8l10.3-15.8l5,3.2l-14,21.7L392,377.4L405.6,356.4z M390.2,360.4
	l8.6-1.7l-2.5,4.8l-4.8,0.9l2.1,4.5l-2.4,4.7l-3.8-7.9L390.2,360.4z M432.2,381.9l4.9,2.4l-2.7,5.3l-4.9-2.5L432.2,381.9z
	 M423.5,336.8l24.8,13.2l-3.4,6.3L420.1,343l-4.8,9.1l-5.3-2.9l13-24.4l5.3,2.8L423.5,336.8z M435.8,289.2l1.8-6.4l32.6,9.2
	l-1.9,6.8l-27.1,6.6l23.2,6.8l-1.8,6.3l-32.7-9.3l2.1-7.2l26.4-6.3L435.8,289.2z M465.5,275l6.8,2.9l-0.5,7.4l-33-14.5l0.6-8.3
	l34.7-9.4l-0.5,7.6l-7.2,1.7L465.5,275z M459.9,272.7l0.6-8.6l-13.7,3.3L459.9,272.7z M438.2,213.9L472,211l0.6,6.6l-28.3,2.4
	l28.9,4l0.6,7l-27.8,8.5l28.3-2.4l0.6,6.6l-33.8,3l-0.9-10.3l26.2-8.4l-27.3-3.8L438.2,213.9z"/>
</svg>
